<svg width="3313" height="2227" viewBox="0 0 3313 2227" fill="none" xmlns="http://www.w3.org/2000/svg">
<rect width="296" height="368" fill="black" fill-opacity="0.37"/>
<rect x="301" width="502" height="363" fill="black" fill-opacity="0.3"/>
<rect x="803" width="566" height="363" fill="black" fill-opacity="0.37"/>
<rect x="1369" width="605" height="363" fill="black" fill-opacity="0.37"/>
<rect x="1974" width="162" height="363" fill="black" fill-opacity="0.37"/>
<rect x="2136" width="523" height="363" fill="black" fill-opacity="0.3"/>
<rect x="2659" width="526" height="344" fill="black" fill-opacity="0.3"/>
<rect x="3185" width="128" height="344" fill="black" fill-opacity="0.37"/>
<rect y="368" width="296" height="302" fill="black" fill-opacity="0.37"/>
<rect x="307" y="368" width="500" height="334" fill="black" fill-opacity="0.3"/>
<rect x="809" y="368" width="516" height="321" fill="black" fill-opacity="0.3"/>
<rect x="1345" y="368" width="508" height="321" fill="black" fill-opacity="0.3"/>
<rect x="1862" y="365" width="267" height="320" fill="black" fill-opacity="0.37"/>
<rect x="2136" y="365" width="514" height="321" fill="black" fill-opacity="0.3"/>
<rect x="2671" y="365" width="514" height="321" fill="black" fill-opacity="0.3"/>
<rect x="3195" y="355" width="118" height="331" fill="black" fill-opacity="0.37"/>
<rect y="680" width="296" height="391" fill="black" fill-opacity="0.37"/>
<rect x="307" y="712" width="231" height="356" fill="black" fill-opacity="0.3"/>
<rect x="552" y="715" width="240" height="356" fill="black" fill-opacity="0.3"/>
<rect x="814" y="712" width="254" height="338" fill="black" fill-opacity="0.3"/>
<rect x="1072" y="712" width="254" height="338" fill="black" fill-opacity="0.3"/>
<rect x="1330" y="702" width="527" height="348" fill="black" fill-opacity="0.3"/>
<rect x="1869" y="706" width="267" height="320" fill="black" fill-opacity="0.37"/>
<rect x="2134" y="704" width="509" height="338" fill="black" fill-opacity="0.3"/>
<rect x="2660" y="704" width="525" height="336" fill="black" fill-opacity="0.3"/>
<rect x="3195" y="692" width="118" height="348" fill="black" fill-opacity="0.37"/>
<rect y="1071" width="296" height="320" fill="black" fill-opacity="0.37"/>
<rect x="307" y="1076" width="494" height="334" fill="black" fill-opacity="0.3"/>
<rect x="807" y="1071" width="513" height="314" fill="black" fill-opacity="0.3"/>
<rect x="1330" y="1059" width="271" height="322" fill="black" fill-opacity="0.3"/>
<rect x="1612" y="1059" width="250" height="322" fill="black" fill-opacity="0.3"/>
<rect x="1862" y="1055" width="267" height="320" fill="black" fill-opacity="0.37"/>
<rect x="2136" y="1059" width="498" height="312" fill="black" fill-opacity="0.3"/>
<rect x="2650" y="1053" width="535" height="318" fill="black" fill-opacity="0.3"/>
<rect x="3195" y="1053" width="118" height="373" fill="black" fill-opacity="0.37"/>
<rect y="1402" width="295" height="501" fill="black" fill-opacity="0.37"/>
<rect x="307" y="1419" width="485" height="337" fill="black" fill-opacity="0.3"/>
<rect x="807" y="1402" width="506" height="351" fill="black" fill-opacity="0.3"/>
<rect x="1330" y="1402" width="522" height="360" fill="black" fill-opacity="0.3"/>
<rect x="1864" y="1390" width="267" height="372" fill="black" fill-opacity="0.37"/>
<rect x="2136" y="1390" width="514" height="373" fill="black" fill-opacity="0.3"/>
<rect x="2663" y="1390" width="522" height="372" fill="black" fill-opacity="0.3"/>
<rect x="3206" y="1431" width="107" height="315" fill="black" fill-opacity="0.37"/>
<rect y="1762" width="694" height="465" fill="black" fill-opacity="0.37"/>
<rect x="671" y="1769" width="764" height="458" fill="black" fill-opacity="0.37"/>
<rect x="1320" y="1769" width="532" height="458" fill="black" fill-opacity="0.37"/>
<rect x="1864" y="1769" width="272" height="458" fill="black" fill-opacity="0.37"/>
<rect x="2150" y="1769" width="486" height="458" fill="black" fill-opacity="0.3"/>
<rect x="2650" y="1763" width="238" height="464" fill="black" fill-opacity="0.37"/>
<rect x="2898" y="1763" width="415" height="464" fill="black" fill-opacity="0.37"/>
</svg>
